<?xml version="1.0" standalone="no"?>
<!DOCTYPE svg PUBLIC "-//W3C//DTD SVG 20010904//EN"
 "http://www.w3.org/TR/2001/REC-SVG-20010904/DTD/svg10.dtd">
<svg version="1.0" xmlns="http://www.w3.org/2000/svg"
 width="260.000000pt" height="260.000000pt" viewBox="0 0 260.000000 260.000000"
 preserveAspectRatio="xMidYMid meet">
<metadata>
Created by potrace 1.11, written by Peter Selinger 2001-2013
</metadata>
<g transform="translate(0.000000,260.000000) scale(0.100000,-0.100000)"
fill="#000000" stroke="none">
<path d="M1225 2591 c-17 -4 -53 -19 -80 -33 -99 -50 -871 -500 -904 -527 -19
-15 -51 -56 -70 -92 l-36 -64 0 -570 0 -570 33 -67 c20 -40 47 -79 70 -96 34
-27 188 -122 198 -122 2 0 4 296 4 658 0 626 1 660 18 675 10 10 31 17 46 17
18 0 167 -78 412 -216 l383 -216 378 213 c250 142 390 215 414 217 67 7 63 40
69 -690 l5 -658 85 51 c105 62 153 108 188 179 l27 55 0 565 0 565 -27 55
c-15 30 -46 74 -70 96 -53 51 -910 548 -982 569 -52 16 -111 18 -161 6z"/>
<path d="M902 410 l3 -232 135 -78 c150 -88 204 -106 291 -96 65 6 88 17 257
113 l112 65 0 229 0 230 -22 -12 c-13 -7 -103 -57 -201 -111 l-179 -99 -166
92 c-92 51 -182 101 -200 111 l-32 20 2 -232z"/>
</g>
</svg>
